/* XPM */
static char * C:\Users\usuario\Desktop\kr1819_2_master\angel_xpm[] = {
"32 32 218 2",
"  	c None",
". 	c #988A63",
"+ 	c #BB9B1D",
"@ 	c #AC922E",
"# 	c #AF9A52",
"$ 	c #84764A",
"% 	c #898988",
"& 	c #E1C678",
"* 	c #837B61",
"= 	c #A39B79",
"- 	c #AEA583",
"; 	c #DBC99A",
"> 	c #BC9F37",
", 	c #BFB699",
"' 	c #AFA483",
") 	c #C3AD6C",
"! 	c #AE9746",
"~ 	c #90804C",
"{ 	c #C4B177",
"] 	c #85806A",
"^ 	c #B19F63",
"/ 	c #B59B42",
"( 	c #AF9B5B",
"_ 	c #C7A627",
": 	c #CBA604",
"< 	c #BD9C1E",
"[ 	c #9F873B",
"} 	c #A39878",
"| 	c #E9C755",
"1 	c #FDCF00",
"2 	c #FED000",
"3 	c #FECF00",
"4 	c #EBC105",
"5 	c #A88C22",
"6 	c #B7AB88",
"7 	c #FBD146",
"8 	c #D4B020",
"9 	c #ACA490",
"0 	c #FBD34E",
"a 	c #DFBF56",
"b 	c #E6CA80",
"c 	c #BEB39A",
"d 	c #F2D583",
"e 	c #F8CB02",
"f 	c #F9D031",
"g 	c #EBC10B",
"h 	c #EFCF6A",
"i 	c #EBC53A",
"j 	c #E8DEC2",
"k 	c #F5F5F5",
"l 	c #F6F6F5",
"m 	c #A6A6A6",
"n 	c #BDB7A3",
"o 	c #FCCF0E",
"p 	c #FDCF01",
"q 	c #F7CD1E",
"r 	c #FDD000",
"s 	c #E6BF1A",
"t 	c #E5DECD",
"u 	c #E4DFCF",
"v 	c #F0EFEF",
"w 	c #F2F2F2",
"x 	c #F5F6F5",
"y 	c #F6F6F6",
"z 	c #E0E0E0",
"A 	c #C5C0B0",
"B 	c #FBD245",
"C 	c #E3BD2E",
"D 	c #E9D28F",
"E 	c #DDD7C3",
"F 	c #EADDC1",
"G 	c #EAE6DC",
"H 	c #F5F5F6",
"I 	c #F1F1F1",
"J 	c #E9E9E9",
"K 	c #8A8A8A",
"L 	c #E0E0E1",
"M 	c #E8E7E0",
"N 	c #EFEDE5",
"O 	c #F6F5F5",
"P 	c #CFCFCF",
"Q 	c #CACACA",
"R 	c #D6D6D6",
"S 	c #E5E5E5",
"T 	c #B1B1B1",
"U 	c #AAA9AA",
"V 	c #E7E7E7",
"W 	c #D9D9D9",
"X 	c #BDBDBD",
"Y 	c #E1E1E1",
"Z 	c #B4B4B4",
"` 	c #D2D2D2",
" .	c #C8C8C8",
"..	c #CECECE",
"+.	c #EFEFEF",
"@.	c #E8E8E8",
"#.	c #999999",
"$.	c #D5D5D5",
"%.	c #D0D0D0",
"&.	c #C0C0C0",
"*.	c #E4E4E4",
"=.	c #E3E3E3",
"-.	c #F4F4F4",
";.	c #979797",
">.	c #7F7F7F",
",.	c #898989",
"'.	c #B6B6B6",
").	c #717171",
"!.	c #818181",
"~.	c #DBDBDB",
"{.	c #B8B8B8",
"].	c #BABABA",
"^.	c #F0F0F0",
"/.	c #A4A4A4",
"(.	c #E2E2E2",
"_.	c #C9C9C9",
":.	c #C2C2C2",
"<.	c #939393",
"[.	c #B3B3B3",
"}.	c #AEAEAE",
"|.	c #D8D8D8",
"1.	c #F3F3F3",
"2.	c #EDECEC",
"3.	c #EAEAEA",
"4.	c #F4F5F4",
"5.	c #ECECEC",
"6.	c #757575",
"7.	c #909090",
"8.	c #C4C4C4",
"9.	c #C7C7C7",
"0.	c #DFDFDF",
"a.	c #D1D1D1",
"b.	c #959595",
"c.	c #BEBEBE",
"d.	c #464646",
"e.	c #9CA3A5",
"f.	c #8CC5DE",
"g.	c #8CC6DE",
"h.	c #91CDE6",
"i.	c #93CFE8",
"j.	c #74919E",
"k.	c #8B8B8A",
"l.	c #CCCCCC",
"m.	c #3D3D3D",
"n.	c #ABABAB",
"o.	c #C5C5C5",
"p.	c #C3C3C3",
"q.	c #BFC6C8",
"r.	c #99D9F4",
"s.	c #98D8F3",
"t.	c #89C0D8",
"u.	c #A1C4D3",
"v.	c #C5D8E1",
"w.	c #9EAEB6",
"x.	c #6B8B9B",
"y.	c #6F92A1",
"z.	c #81ACBE",
"A.	c #9BD2EA",
"B.	c #53666D",
"C.	c #969696",
"D.	c #949494",
"E.	c #828282",
"F.	c #A3A3A3",
"G.	c #AFB5B7",
"H.	c #6C90A0",
"I.	c #D7D7D7",
"J.	c #DCDFE0",
"K.	c #9AD8F3",
"L.	c #7EACBF",
"M.	c #A9A9A9",
"N.	c #B7B7B7",
"O.	c #A2A2A2",
"P.	c #E1E2E2",
"Q.	c #A7DCF3",
"R.	c #99D8F3",
"S.	c #7CA8BB",
"T.	c #6D6D6D",
"U.	c #BDE2F4",
"V.	c #7CA3B5",
"W.	c #B9B9B9",
"X.	c #ACACAC",
"Y.	c #A0A0A0",
"Z.	c #B8CED9",
"`.	c #98D9F3",
" +	c #99D9F3",
".+	c #99D8F4",
"++	c #6C8995",
"@+	c #BBBBBB",
"#+	c #8F8F8F",
"$+	c #929292",
"%+	c #777777",
"&+	c #9A9D9F",
"*+	c #AFDDF2",
"=+	c #3D3E3E",
"-+	c #9F9F9F",
";+	c #D4D4D4",
">+	c #AEBBC1",
",+	c #9ED9F3",
"'+	c #85B6CB",
")+	c #C0C0C1",
"!+	c #AAAAAA",
"~+	c #9D9D9D",
"{+	c #C1C1C1",
"]+	c #C6C6C6",
"^+	c #B8CCD5",
"/+	c #9AD9F3",
"(+	c #B2C7D2",
"_+	c #9DDAF3",
":+	c #98D7F2",
"<+	c #698C9B",
"[+	c #9CABB1",
"}+	c #A9D6E9",
"|+	c #97D5F0",
"1+	c #6E96A8",
"2+	c #93A5AE",
"3+	c #8FB4C4",
"4+	c #82AFC2",
"5+	c #668693",
"                  . + @ # $                                     ",
"                % & *     = -                                   ",
"                  ; >         ,                                 ",
"                    ' ) !   ~ {                                 ",
"                        ] ^ /                                   ",
"              ( _ : < [                                         ",
"          } | 1 2 1 3 1 4 5                                     ",
"        6 7 2 2 2 2 2 2 2 1 8                                   ",
"      9 0 1 2 2 2 2 2 2 2 a b c                                 ",
"      d 1 2 2 2 e f g h i j k l m                               ",
"    n o 1 p q r s t u v w x y y z                               ",
"    A B C D E F G H y y y I J y y K                             ",
"    L M N O y l x y z P y Q R S y T                             ",
"    z y k U V k y y W X y Y P I y Z                             ",
"    `  ...W +.y y y y y y @.J y y #.                            ",
"    Z $.%.y y y y y y y y &.I y *.                              ",
"      =.k P k y y y y k ..` y -.;.>.,.'.).                      ",
"      !.~.@.{.&.P ` &.].Y y ^./.(._.~.:.W                       ",
"    <.[.  }.|.1.2.3.4.5.W {.6.7._.8.9.0.a.                      ",
"    b.c./.    d.e.f.g.h.i.j.k.].Q l.c.m.                        ",
"        n.o.p.c.q.r.r.r.r.s.t.u.v.w.x.y.z.A.B.      C.D.[.E.    ",
"            F.;.G.r.r.r.s.r.r.r.r.r.r.r.r.r.H.    c.y y k ;.    ",
"          I.y y J.K.r.r.r.r.r.r.r.r.r.r.r.r.L.].c.[.M.N.O.,.    ",
"        ;.y y y P.Q.R.r.r.r.r.r.r.r.r.r.r.r.S.T.                ",
"        '.k 5.=.9.U.R.r.r.s.r.r.r.r.s.r.r.r.V.                  ",
"        W.y X.Y.  Z.`. +r.r.s.r.r.r.r.r.s..+++      n.@+#+      ",
"        $+~.%+    &+*+r.r.s.r.r.r.r.r.r. +h.=+  -+z y y ;+      ",
"                    >+,+r.r.r.r.r.r.r.r.s.'+)+!+~+N.{+]+].      ",
"                      ^+/+r.r.r.r.r.r.r.h.                      ",
"                        (+_+`.r.r.r.r.:+<+                      ",
"                          [+}+R. + +|+1+                        ",
"                              2+3+4+5+                          "};
