/* XPM */
static char * C:\Users\usuario\Desktop\kr1819_2_master\cannibal_xpm[] = {
"32 32 583 2",
"  	c None",
". 	c #72716F",
"+ 	c #4E4B4A",
"@ 	c #2A2424",
"# 	c #1E1617",
"$ 	c #272020",
"% 	c #2C2627",
"& 	c #332E2E",
"* 	c #3F3B3A",
"= 	c #3B3736",
"- 	c #848280",
"; 	c #9D9B98",
"> 	c #6B6966",
", 	c #332727",
"' 	c #23191A",
") 	c #261C1D",
"! 	c #291E1E",
"~ 	c #321C1B",
"{ 	c #241A1A",
"] 	c #403A39",
"^ 	c #211818",
"/ 	c #221919",
"( 	c #454140",
"_ 	c #595554",
": 	c #7A7876",
"< 	c #7F7E7C",
"[ 	c #383434",
"} 	c #221C1C",
"| 	c #291A1A",
"1 	c #2F2828",
"2 	c #5E5352",
"3 	c #624948",
"4 	c #2B2324",
"5 	c #2D2223",
"6 	c #492E2E",
"7 	c #322626",
"8 	c #7B7977",
"9 	c #231E1E",
"0 	c #150E0F",
"a 	c #5F5655",
"b 	c #282021",
"c 	c #301D1E",
"d 	c #4B4746",
"e 	c #2C2929",
"f 	c #2F2D2C",
"g 	c #191514",
"h 	c #857371",
"i 	c #685554",
"j 	c #807775",
"k 	c #826362",
"l 	c #22181A",
"m 	c #281F20",
"n 	c #352525",
"o 	c #25191A",
"p 	c #130E0F",
"q 	c #1C1819",
"r 	c #251B1B",
"s 	c #362626",
"t 	c #342D2D",
"u 	c #60302F",
"v 	c #574A49",
"w 	c #292323",
"x 	c #777674",
"y 	c #555352",
"z 	c #0E090A",
"A 	c #1D1919",
"B 	c #272524",
"C 	c #3A3433",
"D 	c #8D7F7D",
"E 	c #664847",
"F 	c #74605E",
"G 	c #56302F",
"H 	c #181012",
"I 	c #110B0D",
"J 	c #0B0607",
"K 	c #120B0C",
"L 	c #030102",
"M 	c #0C0607",
"N 	c #201717",
"O 	c #201010",
"P 	c #301617",
"Q 	c #421B1C",
"R 	c #4A2829",
"S 	c #392728",
"T 	c #1D1819",
"U 	c #7D7B79",
"V 	c #706E6D",
"W 	c #040202",
"X 	c #353130",
"Y 	c #92908D",
"Z 	c #847572",
"` 	c #371E1E",
" .	c #3E1F1F",
"..	c #492D2C",
"+.	c #291718",
"@.	c #040203",
"#.	c #000000",
"$.	c #050405",
"%.	c #030202",
"&.	c #050303",
"*.	c #170E0E",
"=.	c #211414",
"-.	c #241516",
";.	c #110405",
">.	c #1A090A",
",.	c #1B0C0D",
"'.	c #0E0A0B",
").	c #1A1717",
"!.	c #8C8A88",
"~.	c #020102",
"{.	c #2E2828",
"].	c #544B49",
"^.	c #A99D9A",
"/.	c #3F2E2D",
"(.	c #080404",
"_.	c #190E0E",
":.	c #020101",
"<.	c #030303",
"[.	c #090606",
"}.	c #181111",
"|.	c #231D1D",
"1.	c #1E1A19",
"2.	c #6C6665",
"3.	c #5D4A4A",
"4.	c #120303",
"5.	c #080202",
"6.	c #0D0505",
"7.	c #1D0D0E",
"8.	c #0A0707",
"9.	c #0A0808",
"0.	c #605F5E",
"a.	c #6E6B6A",
"b.	c #070506",
"c.	c #211C1B",
"d.	c #6A5856",
"e.	c #534341",
"f.	c #110E0E",
"g.	c #030101",
"h.	c #040101",
"i.	c #110A0A",
"j.	c #504D4B",
"k.	c #B9B6B3",
"l.	c #E4E2DE",
"m.	c #C1BBB9",
"n.	c #0D0707",
"o.	c #0C0404",
"p.	c #070405",
"q.	c #151212",
"r.	c #7D7C7A",
"s.	c #3D3B3B",
"t.	c #2B2222",
"u.	c #503534",
"v.	c #0B0808",
"w.	c #010000",
"x.	c #010001",
"y.	c #010101",
"z.	c #1E1818",
"A.	c #514846",
"B.	c #C0BFBB",
"C.	c #E9E8E3",
"D.	c #FBFBF6",
"E.	c #FAFAF5",
"F.	c #F1EBE7",
"G.	c #645858",
"H.	c #161314",
"I.	c #050404",
"J.	c #090707",
"K.	c #272323",
"L.	c #787775",
"M.	c #7A7776",
"N.	c #201D1C",
"O.	c #090505",
"P.	c #241110",
"Q.	c #130808",
"R.	c #090908",
"S.	c #8F817E",
"T.	c #DCCFCA",
"U.	c #F8F6F2",
"V.	c #FAF9F4",
"W.	c #F9F9F4",
"X.	c #F6F0ED",
"Y.	c #A89D9C",
"Z.	c #141011",
"`.	c #191415",
" +	c #252121",
".+	c #4A4645",
"++	c #4E4A49",
"@+	c #82817F",
"#+	c #353231",
"$+	c #302524",
"%+	c #3D2D2D",
"&+	c #272221",
"*+	c #55514F",
"=+	c #C9C7C3",
"-+	c #C9C9C5",
";+	c #F7F6F1",
">+	c #F1E8E3",
",+	c #EFE8E4",
"'+	c #F6EFED",
")+	c #F2E8E6",
"!+	c #D8CCCC",
"~+	c #322A2C",
"{+	c #3A3434",
"]+	c #4C4948",
"^+	c #585453",
"/+	c #6C6968",
"(+	c #979492",
"_+	c #3A3737",
":+	c #0E0B0B",
"<+	c #AEA5A2",
"[+	c #ECE7E3",
"}+	c #F6EFEC",
"|+	c #F7F0ED",
"1+	c #F8F4F0",
"2+	c #F8F5F1",
"3+	c #F2E9E6",
"4+	c #F6F4F0",
"5+	c #FBF7F3",
"6+	c #F2EAE5",
"7+	c #F1E9E7",
"8+	c #F0E4E3",
"9+	c #EEE1E1",
"0+	c #948688",
"a+	c #6A6363",
"b+	c #6F6B6A",
"c+	c #837F7E",
"d+	c #8C8886",
"e+	c #969492",
"f+	c #656362",
"g+	c #1E1C1B",
"h+	c #E8DCD9",
"i+	c #F7EAE7",
"j+	c #F5E8E6",
"k+	c #F8F2EF",
"l+	c #F5EBE9",
"m+	c #F9F6F2",
"n+	c #FAF6F2",
"o+	c #F4E9E6",
"p+	c #EBDDD9",
"q+	c #EEE6E2",
"r+	c #F4ECEA",
"s+	c #F1E4E3",
"t+	c #A39C9A",
"u+	c #A8A4A2",
"v+	c #B6B3B1",
"w+	c #A9A5A3",
"x+	c #C3BDB9",
"y+	c #6E6B6B",
"z+	c #232120",
"A+	c #E7D8D5",
"B+	c #F4DFDD",
"C+	c #F3E0E0",
"D+	c #F6ECE9",
"E+	c #F6EDEA",
"F+	c #E4D4D4",
"G+	c #F7F4F0",
"H+	c #F8F3EF",
"I+	c #F7F0EC",
"J+	c #E9DEDC",
"K+	c #E9E3E0",
"L+	c #F4F1EC",
"M+	c #E8E3E0",
"N+	c #F3E3E4",
"O+	c #F8EFED",
"P+	c #EAE7E3",
"Q+	c #B6B1AF",
"R+	c #A19C9A",
"S+	c #A99F9F",
"T+	c #6A6466",
"U+	c #A9A5A5",
"V+	c #B4B0AF",
"W+	c #4A4847",
"X+	c #E0D0CD",
"Y+	c #F3DCDA",
"Z+	c #F3DBD9",
"`+	c #F2DCDB",
" @	c #EADCDB",
".@	c #EAE5E2",
"+@	c #FAF7F2",
"@@	c #DED0CC",
"#@	c #EAE3DF",
"$@	c #EEE9E5",
"%@	c #AFA5A1",
"&@	c #B2A8A4",
"*@	c #E9DFDC",
"=@	c #F6ECEA",
"-@	c #F7F1EE",
";@	c #A59F9E",
">@	c #736668",
",@	c #C0B3B3",
"'@	c #BDB5B5",
")@	c #E1D7D6",
"!@	c #E3E0DD",
"~@	c #CDC4C0",
"{@	c #F6E4E1",
"]@	c #E7D2D1",
"^@	c #EEE3E1",
"/@	c #E5DEDA",
"(@	c #E7E4DF",
"_@	c #695F5D",
":@	c #A4A29E",
"<@	c #D0CBC7",
"[@	c #D6CECB",
"}@	c #E1D8D7",
"|@	c #B0A7A6",
"1@	c #8F8585",
"2@	c #A09293",
"3@	c #D2C2C1",
"4@	c #A19698",
"5@	c #E2D9D7",
"6@	c #E0DEDB",
"7@	c #EFE3E1",
"8@	c #F3EBE7",
"9@	c #FBF8F4",
"0@	c #F6EAE7",
"a@	c #F8F2EE",
"b@	c #F2EEEA",
"c@	c #8E8C89",
"d@	c #D6D5D1",
"e@	c #C4C2BF",
"f@	c #837C7D",
"g@	c #AEA1A3",
"h@	c #958B8A",
"i@	c #B6ABA9",
"j@	c #EBE1DD",
"k@	c #B2A3A4",
"l@	c #CEC1C2",
"m@	c #C6BFBE",
"n@	c #B4A5A9",
"o@	c #E2DEDB",
"p@	c #DCD1CE",
"q@	c #F4E2E0",
"r@	c #F7EBE8",
"s@	c #F1E3E1",
"t@	c #EFE6E2",
"u@	c #D7D2CE",
"v@	c #7D7474",
"w@	c #070606",
"x@	c #5E5A58",
"y@	c #706B69",
"z@	c #BCA8A5",
"A@	c #937977",
"B@	c #473B3D",
"C@	c #BEB1B2",
"D@	c #F5E8E4",
"E@	c #EDE1E0",
"F@	c #D4C5C4",
"G@	c #BBABAE",
"H@	c #E4DEDB",
"I@	c #DED0D0",
"J@	c #7A7674",
"K@	c #918885",
"L@	c #A56D6C",
"M@	c #9E8B89",
"N@	c #9D9290",
"O@	c #777472",
"P@	c #1D1110",
"Q@	c #886C6B",
"R@	c #3C3130",
"S@	c #270202",
"T@	c #511212",
"U@	c #230101",
"V@	c #3F3438",
"W@	c #D8D1CF",
"X@	c #EEDBD9",
"Y@	c #E5CECF",
"Z@	c #ECD8D5",
"`@	c #BEA5A8",
" #	c #F4EEEB",
".#	c #D5CFCD",
"+#	c #3B1717",
"@#	c #936F6D",
"##	c #D85658",
"$#	c #5A0303",
"%#	c #625C5A",
"&#	c #B2AAA5",
"*#	c #060202",
"=#	c #613233",
"-#	c #792E2E",
";#	c #620C0D",
">#	c #3F0404",
",#	c #1C0101",
"'#	c #3C3437",
")#	c #E0CCC8",
"!#	c #CFA6A5",
"~#	c #DABABC",
"{#	c #E2C5C7",
"]#	c #BFAEB0",
"^#	c #F3EDEA",
"/#	c #F4EDE9",
"(#	c #E0DDD9",
"_#	c #170303",
":#	c #7A5D5B",
"<#	c #A94A4A",
"[#	c #430202",
"}#	c #383331",
"|#	c #EEE5E0",
"1#	c #938A85",
"2#	c #1C0405",
"3#	c #620F0F",
"4#	c #771213",
"5#	c #2F0909",
"6#	c #050101",
"7#	c #916465",
"8#	c #E7B2AF",
"9#	c #C37F81",
"0#	c #E8ADAD",
"a#	c #D7ABB0",
"b#	c #B7ABAC",
"c#	c #F6F2EE",
"d#	c #F9F1EB",
"e#	c #F6F5F0",
"f#	c #3E3837",
"g#	c #3C0909",
"h#	c #2C0202",
"i#	c #201A1A",
"j#	c #EDE7E3",
"k#	c #F6E2D8",
"l#	c #A18986",
"m#	c #644E4C",
"n#	c #8A6563",
"o#	c #241C1C",
"p#	c #935F5D",
"q#	c #C6393A",
"r#	c #CD3132",
"s#	c #922123",
"t#	c #B43132",
"u#	c #D29A9F",
"v#	c #D3C0C0",
"w#	c #F9F1ED",
"x#	c #F9F0EA",
"y#	c #EDEDE8",
"z#	c #090303",
"A#	c #0B0908",
"B#	c #A39692",
"C#	c #F1E6DE",
"D#	c #FAEDE6",
"E#	c #C19D98",
"F#	c #CDA59D",
"G#	c #745F5C",
"H#	c #B78F8D",
"I#	c #C45A5A",
"J#	c #AB1616",
"K#	c #920C0C",
"L#	c #860B0C",
"M#	c #BA0E0F",
"N#	c #A84549",
"O#	c #E0C4C4",
"P#	c #F9F4F0",
"Q#	c #F3F1EC",
"R#	c #7C7B78",
"S#	c #7C7A77",
"T#	c #CFC7C2",
"U#	c #EEDBD5",
"V#	c #EFE3D9",
"W#	c #FBF0E8",
"X#	c #DEB9B1",
"Y#	c #9E7E7C",
"Z#	c #9C6366",
"`#	c #C73F3E",
" $	c #B6100F",
".$	c #720E0F",
"+$	c #841111",
"@$	c #7C0405",
"#$	c #8D0202",
"$$	c #7C0F10",
"%$	c #ECCCCC",
"&$	c #F5F1ED",
"*$	c #85817F",
"=$	c #959492",
"-$	c #C8B9B6",
";$	c #B09A9B",
">$	c #D8C7C0",
",$	c #DCC8C3",
"'$	c #816967",
")$	c #9A3134",
"!$	c #DA4648",
"~$	c #A11B1B",
"{$	c #8D3030",
"]$	c #842323",
"^$	c #AB1213",
"/$	c #7E0809",
"($	c #80272A",
"_$	c #7D292A",
":$	c #F0DAD8",
"<$	c #ADA9A6",
"[$	c #342C2C",
"}$	c #90908D",
"|$	c #A19897",
"1$	c #A28E8D",
"2$	c #754D4E",
"3$	c #702E2F",
"4$	c #7F1110",
"5$	c #A93F3E",
"6$	c #CE7B79",
"7$	c #B67170",
"8$	c #8A1416",
"9$	c #9F0909",
"0$	c #6B0404",
"a$	c #973135",
"b$	c #9B494A",
"c$	c #E7D7D4",
"d$	c #4B4443",
"e$	c #251F1F",
"f$	c #636361",
"g$	c #946160",
"h$	c #885957",
"i$	c #E2A6A3",
"j$	c #E8ACA9",
"k$	c #C55C5A",
"l$	c #884342",
"m$	c #910A0A",
"n$	c #8B0606",
"o$	c #610202",
"p$	c #680B0B",
"q$	c #CFA2A1",
"r$	c #7C7372",
"s$	c #181415",
"t$	c #141112",
"u$	c #575756",
"v$	c #B78A88",
"w$	c #8E1314",
"x$	c #AF6D6C",
"y$	c #AA7674",
"z$	c #8D2A2B",
"A$	c #851C1D",
"B$	c #770C0C",
"C$	c #7C0908",
"D$	c #470202",
"E$	c #6A2727",
"F$	c #B39796",
"G$	c #120F10",
"H$	c #1B1617",
"I$	c #121010",
"J$	c #9D9D9A",
"K$	c #874443",
"L$	c #4D0404",
"M$	c #BB3939",
"N$	c #A64444",
"O$	c #6B1E1E",
"P$	c #6C0A0A",
"Q$	c #5E0606",
"R$	c #4C0505",
"S$	c #A9595B",
"T$	c #564142",
"U$	c #211617",
"V$	c #564B4B",
"W$	c #DEDCD8",
"X$	c #866361",
"Y$	c #9F3334",
"Z$	c #C46E6D",
"`$	c #D09B98",
" %	c #993D3D",
".%	c #4F0606",
"+%	c #490707",
"@%	c #730D0D",
"#%	c #882325",
"$%	c #100B0C",
"%%	c #1A1314",
"&%	c #534847",
"*%	c #978481",
"=%	c #DAD5D1",
"-%	c #BA8D8C",
";%	c #7D3E3F",
">%	c #5C1314",
",%	c #571212",
"'%	c #403634",
")%	c #A86F70",
"!%	c #881E20",
"~%	c #4A1415",
"{%	c #161011",
"]%	c #1B0E0E",
"^%	c #866967",
"/%	c #A78986",
"(%	c #5E5C5B",
"_%	c #807876",
":%	c #781617",
"<%	c #230808",
"[%	c #582C2B",
"}%	c #4C2929",
"|%	c #A35F5D",
"1%	c #4B3030",
"2%	c #535351",
"                    . + @ # $ % & * = -                         ",
"              ; > @ , ' ) ! ~ { ] ^ / ( _ :                     ",
"          < [ } | 1 2 3 4 5 6 7 8 9 0 a b c d                   ",
"        e f g [ h i j k l m n o p q r s t u v w x               ",
"      y z A B C D E F G H I J K L M N O P Q R S T U             ",
"      V W X Y Z `  ...+.@.#.$.%.&.*.W =.-.;.>.,.'.).            ",
"      !.~.{.].^./.(._.L :.<.[.}.|.1.2.3.4.5.6.7.8.9.0.          ",
"      a.b.c.d.e.f.[.g.h.~.<.w i.j.k.l.m.n.h.L o.p.q.r.          ",
"        s.&.t.u.v.#.w.x.y.z.A.B.C.D.E.F.G.H.I.J.A K.L.          ",
"        M.N.O.P.Q.y.#.w.R.S.T.U.V.D.W.X.Y.Z.`. +.+++@+          ",
"          #+$+%+&+*+8 =+-+;+>+,+;+D.'+)+!+~+{+]+^+/+(+          ",
"          _+:+<+[+}+|+1+1+2+3+4+5+6+7+8+9+0+a+b+c+d+e+          ",
"          f+g+h+i+j+|+k+}+l+m+n+o+p+q+r+s+9+t+u+v+w+x+y+        ",
"            z+A+B+C+D+E+F+G+H+I+J+K+L+M+N+O+P+Q+R+S+T+U+V+      ",
"            W+X+Y+Z+`+ @.@+@@@#@$@%@&@*@O+=@-@;@>@,@'@)@!@      ",
"              ~@{@]@^@D+m+2+/@(@_@:@<@[@}@8+|@1@2@3@4@5@6@      ",
"                7@8@9@0@a@m+b@c+c@d@e@f@g@h@i@j@k@l@m@n@o@      ",
"                p@q@r@s@t@u@v@w@x@y@z@A@B@C@D@E@F@G@H@I@        ",
"                J@K@L@M@N@O@P@Q@R@S@T@U@V@W@X@Y@Z@`@ #.#        ",
"                +#@###$#%#&#*#=#-#;#>#,#'#)#!#~#{#]#^#/#(#      ",
"                _#:#<#[#}#|#1#2#3#4#5#6#7#8#9#0#a#b#c#d#e#      ",
"                f#,#g#h#i#j#k#l#m#n#o#p#q#r#s#t#u#v#w#x#y#      ",
"                  |.z#A#B#C#D#E#F#G#H#I#J#K#L#M#N#O#P#Q#R#      ",
"                    S#T#U#V#W#X#Y#Z#`# $.$+$@$#$$$%$&$*$=$      ",
"                      -$;$>$,$'$)$!$~${$]$^$/$($_$:$<$[$}$      ",
"                        |$1$2$3$4$5$6$7$8$9$0$a$b$c$d$e$f$      ",
"                            g$h$i$j$k$l$m$n$o$p$q$r$s$t$u$      ",
"                            v$w$x$y$z$A$B$C$D$E$F$G$H$I$J$      ",
"                              K$L$M$N$O$P$Q$R$S$T$G$U$V$W$      ",
"                              X$Y$Z$`$ %.%+%@%#%$%%%&%*%=%      ",
"                                -%;%>%,%'%)%!%~%{%]%^%/%(%      ",
"                                    _%      :%<%[%}%|%1%2%      "};
